PathFileType	4	(X/Y/Z)	TVC_16_BWA5_walk_RCNL2025.trc
DataRate	CameraRate	NumFrames	NumMarkers	Units	OrigDataRate	OrigDataStartFrame	OrigNumFrames
100	100	10	27	mm	100	420	671
Frame#	Time	R_Shoulder			L_Shoulder			C7			J_Notch			R_Elbow			L_Elbow			R_Wrist			L_Wrist			R_Asis			L_Asis			R_Psis			L_Psis			Sacral			Thoracic			Sternum			R_Thigh_Lateral			R_Knee_Lateral			R_Shank_Lateral			R_Ankle_Lateral			R_Heel			R_Toe			L_Thigh_Lateral			L_Knee_Lateral			L_Shank_Lateral			L_Ankle_Lateral			L_Heel			L_Toe		
		X1	Y1	Z1	X2	Y2	Z2	X3	Y3	Z3	X4	Y4	Z4	X5	Y5	Z5	X6	Y6	Z6	X7	Y7	Z7	X8	Y8	Z8	X9	Y9	Z9	X10	Y10	Z10	X11	Y11	Z11	X12	Y12	Z12	X13	Y13	Z13	X14	Y14	Z14	X15	Y15	Z15	X16	Y16	Z16	X17	Y17	Z17	X18	Y18	Z18	X19	Y19	Z19	X20	Y20	Z20	X21	Y21	Z21	X22	Y22	Z22	X23	Y23	Z23	X24	Y24	Z24	X25	Y25	Z25	X26	Y26	Z26	X27	Y27	Z27
420	4.19000000	155.326553	1308.415894	45.738945	143.226379	1309.594727	-280.241791	91.417900	1362.178711	-108.567604	232.894852	1237.633789	-109.968254	124.924049	990.493225	111.897423	175.255112	988.844727	-353.542419	240.688072	788.607391	98.849724	281.757904	810.426880	-280.636787	211.037735	873.892151	-1.760337	187.364319	904.068237	-262.933533	33.511074	906.965454	-62.730431	26.402773	909.367126	-169.629242	29.956923	908.166290	-116.179836	36.855335	1090.579224	-114.649811	271.882721	1045.632080	-129.393539	165.327667	589.353821	71.484230	177.271149	419.512085	-31.335716	138.220703	261.886688	11.497306	77.964096	56.481331	-78.915344	27.067986	52.764297	-127.307655	198.249130	40.026886	-125.262329	239.156586	629.010010	-361.915497	305.250366	457.011658	-279.436920	271.949951	311.764923	-354.683136	262.652222	81.008965	-293.500183	217.477951	72.260406	-248.500854	392.407196	61.247066	-255.007874
421	4.20000000	156.933228	1308.041626	45.762104	145.634293	1309.302734	-280.300354	93.452499	1361.792603	-108.697739	235.070755	1237.484985	-109.800117	126.854607	990.177246	112.168228	178.044434	988.584167	-353.615875	242.675964	788.303101	99.114758	284.900299	810.316467	-280.944885	212.404358	873.166260	-1.846993	190.471680	903.716003	-262.815216	36.232365	906.538269	-62.904148	29.354733	908.912720	-169.807037	32.793549	907.725494	-116.355593	39.365295	1090.107666	-114.910507	274.420166	1045.590576	-129.180511	168.010010	589.014526	71.493095	178.920944	419.192078	-31.363644	139.266968	261.703979	11.455172	78.063362	56.518185	-78.937965	27.181335	52.951977	-127.346474	198.291855	39.986137	-125.267593	241.636185	628.364868	-361.761169	309.523010	457.394653	-278.952057	278.009766	311.632111	-354.240997	272.568207	80.750587	-292.569458	227.482269	71.492332	-247.440094	402.764069	63.037518	-254.426178
422	4.21000000	158.610504	1307.653442	45.762936	148.080490	1309.017944	-280.379028	95.528503	1361.395996	-108.840607	237.290573	1237.330811	-109.660591	128.850113	989.859924	112.444656	180.882584	988.329773	-353.705170	244.627754	787.952911	99.436802	288.073090	810.197937	-281.270920	213.943298	872.487915	-1.965192	193.560806	903.349792	-262.743011	38.976158	906.121216	-63.077896	32.302261	908.471252	-169.984436	35.639210	907.296234	-116.531166	41.909157	1089.637573	-115.189804	276.990875	1045.539429	-129.001144	170.756821	588.675720	71.481964	180.601913	418.871155	-31.402674	140.320419	261.532043	11.427660	78.168587	56.559345	-78.956680	27.299240	53.152966	-127.380432	198.333969	39.949661	-125.263710	244.442459	627.803833	-361.601654	313.777252	457.751068	-278.467438	283.967896	311.481720	-353.762726	282.289185	80.560661	-291.556488	237.256790	70.832603	-246.321915	412.828552	64.816643	-253.668930
423	4.22000000	160.362167	1307.251831	45.740810	150.571701	1308.739502	-280.477539	97.650253	1360.989014	-108.996887	239.557587	1237.168945	-109.548767	130.918625	989.540283	112.722870	183.769394	988.079468	-353.808167	246.549667	787.554535	99.813766	291.271088	810.068207	-281.606758	215.726593	871.889221	-2.091492	196.632431	902.968262	-262.715149	41.738842	905.714661	-63.252888	35.245972	908.041443	-170.163254	38.492407	906.878052	-116.708071	44.487423	1089.169678	-115.489235	279.594177	1045.474365	-128.852661	173.535950	588.341980	71.455170	182.307388	418.550232	-31.446589	141.364349	261.375092	11.424817	78.277969	56.604927	-78.971336	27.420597	53.367020	-127.409424	198.376846	39.918102	-125.248543	247.569641	627.329834	-361.448730	318.009247	458.076324	-277.988647	289.856903	311.308929	-353.230377	291.787598	80.431007	-290.455139	246.776672	70.271614	-245.138977	422.581146	66.569054	-252.733444
424	4.23000000	162.191254	1306.837280	45.695339	153.114227	1308.466309	-280.595398	99.821877	1360.571899	-109.167137	241.874664	1236.996704	-109.463608	133.066849	989.216858	112.998909	186.704346	987.830872	-353.923065	248.448837	787.106049	100.243061	294.489197	809.924591	-281.944443	217.814133	871.397095	-2.204382	199.688980	902.570068	-262.729248	44.516857	905.318787	-63.431553	38.187149	907.621704	-170.346344	41.352003	906.470245	-116.888948	47.100460	1088.704712	-115.810593	282.229248	1045.390869	-128.732651	176.315643	588.015930	71.416649	184.031326	418.229858	-31.490641	142.382919	261.236328	11.454171	78.389542	56.654907	-78.982124	27.544178	53.593670	-127.433884	198.421738	39.891586	-125.220802	250.984039	626.936096	-361.314575	322.214600	458.365448	-277.520172	295.699341	311.110138	-352.630554	301.034729	80.352203	-289.261444	256.020660	69.798073	-243.883667	432.005371	68.279503	-251.626678
425	4.24000000	164.099991	1306.409790	45.626404	155.713776	1308.196899	-280.731934	102.047211	1360.144775	-109.351761	244.244247	1236.811157	-109.403961	135.300095	988.887695	113.268784	189.686523	987.581909	-354.048553	250.333122	786.605988	100.721615	297.722580	809.764709	-282.276382	220.244598	871.029175	-2.287068	202.734558	902.153870	-262.782379	47.306866	904.933105	-63.617527	41.127789	907.210083	-170.537659	44.217327	906.071594	-117.077593	49.748577	1088.242676	-116.155891	284.895325	1045.284668	-128.639099	179.065231	587.698364	71.369530	185.768372	417.910217	-31.531681	143.363113	261.117249	11.519459	78.501221	56.709038	-78.989555	27.668728	53.832195	-127.454727	198.469666	39.869774	-125.180222	254.630081	626.607117	-361.210449	326.388428	458.612976	-277.065063	301.503540	310.882599	-351.955353	310.001129	80.313652	-287.973938	264.971191	69.399605	-242.548660	441.086884	69.932671	-250.364029
426	4.25000000	166.089752	1305.968872	45.534161	158.375381	1307.929688	-280.886322	104.329758	1359.708008	-109.551010	246.668427	1236.609741	-109.368576	137.622101	988.550842	113.528603	192.714859	987.330322	-354.183655	252.211113	786.053497	101.245892	300.966721	809.586426	-282.595581	223.027664	870.790955	-2.330049	205.774826	901.718445	-262.871246	50.105949	904.556885	-63.815586	44.070583	906.804626	-170.742126	47.088266	905.680756	-117.278856	52.432060	1087.783813	-116.527306	287.591675	1045.151733	-128.570343	181.756088	587.387756	71.315910	187.513992	417.590973	-31.568174	144.296463	261.017090	11.619900	78.611015	56.766804	-78.994415	27.793068	54.081631	-127.473320	198.521210	39.851948	-125.127632	258.438354	626.321289	-361.145416	330.525269	458.812958	-276.624969	307.262146	310.624359	-351.202667	318.657745	80.303802	-286.593536	273.613434	69.063377	-241.127579	449.813202	71.512932	-248.967743
427	4.26000000	168.161011	1305.514038	45.419048	161.103378	1307.663208	-281.057648	106.672653	1359.261475	-109.764984	249.148834	1236.389282	-109.356079	140.035110	988.203796	113.774696	195.788177	987.073975	-354.327881	254.092026	785.448456	101.811924	304.217545	809.387543	-282.895859	226.139023	870.673584	-2.332785	208.816849	901.262451	-262.992432	52.911743	904.188843	-64.031532	47.018925	906.403198	-170.965546	49.965334	905.296021	-117.498539	55.151241	1087.328003	-116.927147	290.317780	1044.988525	-128.525116	184.363113	587.081238	71.256844	189.264465	417.271179	-31.600060	145.180664	260.932465	11.750087	78.717247	56.827454	-78.997787	27.916229	54.340740	-127.491364	198.576080	39.837162	-125.065079	262.334900	626.053467	-361.125916	334.618927	458.958832	-276.200317	312.953156	310.333527	-350.375946	326.976990	80.310242	-285.123535	281.934113	68.776459	-239.615616	458.173248	73.004303	-247.465256
428	4.27000000	170.313370	1305.044556	45.281765	163.901306	1307.395508	-281.244812	109.078636	1358.805420	-109.993668	251.686722	1236.147461	-109.365013	142.539825	987.844360	114.003677	198.905273	986.810913	-354.481049	255.985519	784.791504	102.415348	307.471405	809.165955	-283.171951	229.519836	870.654053	-2.303850	211.868774	900.784607	-263.142487	55.722576	903.827271	-64.272034	49.976841	906.003601	-171.214417	52.849709	904.915436	-117.743225	57.906544	1086.874634	-117.357834	293.073395	1044.791626	-128.502411	186.867111	586.775085	71.192535	191.016983	416.949493	-31.628529	146.020615	260.857727	11.900497	78.818771	56.890125	-79.001022	28.037514	54.608097	-127.510826	198.633026	39.824432	-124.995689	266.250092	625.778076	-361.155457	338.662476	459.043488	-275.790283	318.542175	310.007690	-349.482697	334.933838	80.319763	-283.569366	289.920593	68.525856	-238.009964	466.157257	74.390434	-245.887268
429	4.28000000	172.545578	1304.559326	45.123245	166.772003	1307.125000	-281.446808	111.550041	1358.339966	-110.236916	254.283005	1235.881592	-109.393845	145.135483	987.470032	114.212563	202.064987	986.539246	-354.643341	257.901749	784.084167	103.051479	310.725143	808.919708	-283.419785	233.081421	870.697021	-2.259632	214.939514	900.283447	-263.318207	58.537537	903.470459	-64.544456	52.948971	905.603699	-171.495819	55.743254	904.537079	-118.020138	60.698532	1086.423340	-117.821808	295.858582	1044.558716	-128.501556	189.256561	586.465942	71.122559	192.769699	416.624084	-31.655701	146.828354	260.785706	12.058573	78.914986	56.953976	-79.005676	28.156563	54.882168	-127.533806	198.690063	39.812897	-124.923203	270.126251	625.471863	-361.234222	342.647919	459.059052	-275.393311	323.985565	309.643402	-348.532593	342.506500	80.318398	-281.938019	297.560486	68.298500	-236.309845	473.756531	75.654625	-244.265701
